# xmcd
#
# Track frame offsets:
#	151
#	13790
#	48958
#	83322
#	101191
#	108099
#	139063
#	165066
#	186445
#	260293
#	281149
#	317390
#
# Disc length: 4639 seconds
#
# Revision: 1
# Processed by: cddbd v1.5PL3 Copyright (c) Steve Scherf et al.
# Submitted via: CDmax 2.0
#
DISCID=90121d0c
DTITLE=Jorma Kaukonen and Barry Mitterhoff - Bardavon 1869 Opera House, Poughke
DTITLE=epsie, NY - 11.30.03 - D2
DYEAR=2003
DGENRE=Blues
TTITLE0=Another Man Done Gone >
TTITLE1=Keep Your Lamps Trimmed And Burning
TTITLE2=I See The Light
TTITLE3=I'll Let You Know Before I Leave
TTITLE4=Prohibition Blues, pt I
TTITLE5=Prohibition Blues, pt II
TTITLE6=Heart Temporary
TTITLE7=Living In The Moment
TTITLE8=Good Shepherd
TTITLE9=I Am The Light Of This World
TTITLE10=San Francisco Bay Blues
TTITLE11=Nine Pound Hammer
EXTD=11-30-03\nBardavon 1869 Opera House, Poughkeepsie, NY\nw/Barry Mitterhof
EXTD=f - Mandolin\nOpening act: Paul Curreri\n\nSoundcheck:\nThat'll Never Ha
EXTD=ppen No More\nNew Song (For The Morning]\nSerpent Of Dreams\nI'll Let Yo
EXTD=u Know Before I Leave\nProhibition Blues\nFur Peace Rag\n\nSet 1:\nSearc
EXTD=h My Heart\nNew Song (For The Morning]\nDeath Don't Have No Mercy\nDo No
EXTD=t Go Gentle\nSerpent Of Dreams\nWaiting For A Train\nFur Peace Rag\nCom
EXTD=e Back Baby\nNobody Knows You When You're Down And Out\nTom Cat Blues\nR
EXTD=ed River Blues\n\nSet 2:\nBlue Railroad Train\nCandy Man\nAnother Man Do
EXTD=ne Gone >\nKeep Your Lamps Trimmed And Burning\nI See The Light\nI'll Le
EXTD=t You Know Before I Leave\nProhibition Blues\nHeart Temporary\nLiving I
EXTD=n The Moment\nGood Shepherd\nI Am The Light Of This World\nSan Francisc
EXTD=o Bay Blues\n\nEncore:\nNine Pound Hammer
EXTT0=
EXTT1=
EXTT2=
EXTT3=
EXTT4=
EXTT5=
EXTT6=
EXTT7=
EXTT8=
EXTT9=
EXTT10=
EXTT11=
PLAYORDER=
